<?xml version="1.0" standalone="no"?>
<!DOCTYPE svg PUBLIC "-//W3C//DTD SVG 20010904//EN"
 "http://www.w3.org/TR/2001/REC-SVG-20010904/DTD/svg10.dtd">
<svg version="1.0" xmlns="http://www.w3.org/2000/svg"
 width="300.000000pt" height="300.000000pt" viewBox="0 0 300.000000 300.000000"
 preserveAspectRatio="xMidYMid meet">
<metadata>
Created by potrace 1.10, written by Peter Selinger 2001-2011
</metadata>
<g transform="translate(0.000000,300.000000) scale(0.100000,-0.100000)"
fill="#000000" stroke="none">
<path d="M1440 2848 c-46 -13 -156 -127 -197 -204 -44 -82 -95 -220 -122 -329
-13 -49 -25 -95 -26 -101 -3 -8 -21 -6 -62 8 -32 11 -112 30 -178 43 -213 43
-394 30 -485 -35 -39 -28 -69 -91 -70 -146 0 -35 25 -144 34 -144 2 0 18 5 36
11 30 11 32 14 26 48 -24 154 129 241 373 212 81 -10 299 -56 309 -66 2 -2 -3
-41 -12 -87 -54 -299 -53 -837 4 -1136 l17 -94 -24 -9 c-13 -5 -58 -17 -101
-28 -737 -185 -760 278 -43 837 30 23 51 42 48 42 -8 0 -49 -22 -57 -30 -8 -8
-63 -52 -100 -80 -110 -83 -285 -259 -373 -375 -104 -138 -153 -272 -129 -354
54 -179 307 -204 769 -75 19 5 23 0 33 -38 69 -273 174 -470 290 -544 87 -56
194 -31 274 63 l28 33 -27 25 -27 25 -29 -24 c-106 -89 -241 -29 -336 151 -39
74 -102 241 -117 310 -7 29 -5 33 21 39 49 13 274 113 408 183 220 114 435
255 609 398 49 41 96 79 105 86 34 26 209 215 249 269 94 128 149 262 139 345
-9 86 -91 161 -194 178 -46 7 -44 9 -47 -50 -1 -7 19 -25 44 -38 65 -34 90
-76 90 -151 -1 -230 -346 -588 -868 -900 -160 -96 -523 -266 -567 -266 -6 0
-17 28 -23 63 -58 314 -63 793 -11 1112 18 116 3 110 136 55 170 -69 296 -129
420 -200 182 -105 403 -256 506 -347 37 -33 38 -33 61 -16 13 10 22 22 19 26
-11 19 -197 160 -308 234 -159 106 -311 193 -470 269 -129 61 -306 134 -325
134 -12 0 -8 19 31 149 70 228 161 367 266 407 169 65 346 -180 432 -600 12
-55 23 -127 26 -161 6 -70 22 -133 25 -100 1 11 1 25 0 30 -1 6 -4 37 -6 70
-6 77 -67 352 -106 475 -80 251 -212 414 -333 409 -11 0 -36 -5 -55 -11z m140
-44 c53 -32 43 -39 -55 -39 -91 0 -93 -1 -149 -39 -31 -21 -56 -44 -56 -51 0
-6 -9 -20 -20 -30 -11 -10 -20 -13 -20 -8 0 6 7 14 16 17 8 3 13 10 10 15 -9
13 4 41 18 41 7 0 19 11 26 25 7 14 20 25 28 25 9 0 12 6 8 17 -4 10 -4 14 0
10 4 -4 14 -1 22 5 47 40 117 44 172 12z m-1054 -571 c-92 -31 -149 -93 -162
-173 -6 -35 -9 -40 -15 -25 -4 11 -8 36 -8 56 -1 58 59 132 119 145 14 3 36 7
50 10 13 3 26 7 29 9 2 3 8 2 14 -2 6 -4 -6 -12 -27 -20z m2091 -78 l45 -44
-5 -63 c-4 -68 -29 -144 -54 -168 -13 -12 -12 -10 1 11 10 16 19 55 21 95 5
77 -16 137 -62 187 -23 23 -24 27 -9 27 10 0 39 -20 63 -45z m-2209 -1340 c29
-36 71 -65 95 -65 10 0 15 -4 12 -10 -3 -6 1 -7 9 -4 9 3 16 1 16 -6 0 -7 8
-9 20 -5 12 4 20 2 20 -5 0 -6 5 -8 10 -5 6 3 10 2 10 -3 0 -11 -66 -6 -120
10 -116 32 -167 108 -140 209 l12 44 17 -65 c9 -36 27 -79 39 -95z m727 -14
c-2 -9 -4 -20 -4 -24 -1 -5 -5 -5 -11 -2 -11 7 -14 48 -3 58 9 10 22 -12 18
-32z m337 -576 c49 -6 108 -3 108 6 0 4 9 9 19 12 29 7 16 -15 -25 -41 -39
-25 -99 -28 -141 -7 -27 14 -106 95 -109 112 -1 6 22 -8 52 -32 37 -31 66 -45
96 -50z"/>
<path d="M2295 2318 c-33 -17 -45 -40 -45 -80 0 -48 38 -88 82 -88 41 0 88 48
88 90 0 22 -9 41 -29 61 -31 30 -62 36 -96 17z m70 -10 c45 -20 31 -38 -30
-38 -41 0 -55 4 -55 15 0 15 26 34 47 35 7 0 24 -5 38 -12z m15 -69 c14 -21
-16 -47 -51 -44 -16 1 -33 6 -37 10 -12 12 -8 40 7 46 25 10 72 3 81 -12z"/>
<path d="M438 1911 c46 -30 40 -41 -23 -41 -52 0 -55 1 -45 19 5 11 15 22 22
24 10 4 10 6 0 6 -26 2 -62 -47 -62 -83 0 -72 95 -112 145 -61 50 49 25 130
-45 150 -21 5 -20 3 8 -14z m22 -71 c12 -7 12 -12 -4 -29 -22 -24 -45 -27 -71
-7 -28 20 -12 46 27 46 18 0 40 -4 48 -10z"/>
<path d="M1405 1681 c-84 -39 -135 -120 -135 -216 0 -136 94 -229 230 -229
136 0 230 95 230 233 -1 132 -101 231 -232 231 -30 0 -70 -8 -93 -19z m156
-12 c47 -16 96 -55 104 -81 4 -13 13 -37 21 -55 13 -29 13 -74 1 -135 -6 -32
-58 -87 -104 -109 -36 -17 -56 -21 -101 -16 -136 14 -214 144 -166 278 36 99
144 151 245 118z"/>
<path d="M2330 1455 c0 -8 -7 -15 -15 -15 -8 0 -15 -2 -15 -5 0 -3 30 -37 67
-76 167 -174 245 -324 228 -437 -23 -154 -261 -205 -575 -122 -41 11 -86 23
-100 26 -14 3 -52 16 -86 30 -33 13 -66 24 -73 24 -6 0 -34 11 -61 25 -40 20
-50 22 -50 10 0 -8 4 -14 8 -12 4 1 24 -5 43 -14 48 -23 140 -60 163 -64 10
-3 46 -14 80 -26 72 -25 60 -22 211 -54 152 -33 324 -38 399 -11 149 53 183
166 102 340 -47 102 -108 186 -218 302 -90 94 -108 107 -108 79z m280 -345 c0
-6 9 -29 19 -53 36 -80 45 -132 31 -181 -7 -25 -22 -54 -35 -66 -24 -23 -125
-63 -125 -50 0 9 40 25 53 22 5 -1 6 2 3 6 -3 5 4 18 16 28 57 51 72 150 38
244 -23 64 -23 60 -10 60 6 0 10 -5 10 -10z"/>
<path d="M1692 460 c-46 -43 -41 -109 11 -141 72 -44 155 28 123 106 -24 56
-92 74 -134 35z m96 -6 c36 -25 26 -34 -38 -34 -33 0 -60 4 -60 9 0 13 41 41
60 41 9 0 26 -7 38 -16z m6 -62 c7 -12 -29 -49 -45 -46 -19 2 -59 35 -54 44 5
8 93 11 99 2z"/>
</g>
</svg>
